<?xml version="1.0" standalone="no"?>
<!DOCTYPE svg PUBLIC "-//W3C//DTD SVG 20010904//EN"
 "http://www.w3.org/TR/2001/REC-SVG-20010904/DTD/svg10.dtd">
<svg version="1.0" xmlns="http://www.w3.org/2000/svg"
 width="512.000000pt" height="512.000000pt" viewBox="0 0 512.000000 512.000000"
 preserveAspectRatio="xMidYMid meet">
<metadata>
Created by potrace 1.16, written by Peter Selinger 2001-2019
</metadata>
<g transform="translate(0.000000,512.000000) scale(0.100000,-0.100000)"
fill="#FFFFFF" stroke="none">
<path d="M184 4798 c-56 -18 -126 -80 -156 -137 l-28 -53 0 -1703 0 -1702 20
-18 c12 -11 36 -19 55 -19 19 0 43 8 55 19 20 18 20 20 20 1327 l0 1308 2410
0 2410 0 0 -214 0 -215 26 -20 c34 -27 64 -27 98 0 l26 20 0 609 0 608 -28 53
c-31 60 -101 120 -162 138 -50 15 -4700 14 -4746 -1z m4715 -162 c15 -8 37
-28 47 -43 17 -26 19 -53 22 -320 l3 -293 -2411 0 -2411 0 3 293 c3 267 5 294
22 320 41 60 -138 56 2384 57 2001 0 2317 -2 2341 -14z"/>
<path d="M3481 4414 c-76 -63 -53 -188 40 -215 100 -30 186 53 158 153 -23 84
-132 118 -198 62z"/>
<path d="M3908 4424 c-36 -19 -58 -63 -58 -112 0 -45 26 -84 70 -107 107 -55
221 67 165 175 -29 55 -117 77 -177 44z"/>
<path d="M4305 4407 c-43 -43 -52 -79 -34 -130 26 -73 103 -105 173 -72 45 22
66 59 66 121 0 39 -5 51 -34 80 -30 30 -40 34 -86 34 -46 0 -56 -4 -85 -33z"/>
<path d="M1008 3646 c-31 -23 -38 -65 -38 -225 0 -164 9 -214 40 -231 25 -14
3075 -14 3100 0 31 17 40 67 40 224 0 160 -8 210 -37 232 -26 20 -3079 20
-3105 0z m2982 -226 l0 -80 -1430 0 -1430 0 0 80 0 80 1430 0 1430 0 0 -80z"/>
<path d="M4994 3146 c-19 -14 -19 -42 -24 -1298 -5 -1202 -6 -1285 -23 -1315
-37 -68 164 -63 -2387 -63 -2525 0 -2345 -4 -2386 57 -16 24 -19 54 -24 221
-5 177 -7 195 -24 208 -29 21 -82 18 -106 -6 -19 -19 -20 -33 -20 -229 l0
-209 28 -53 c31 -60 101 -120 162 -138 54 -16 4686 -16 4740 0 61 18 131 78
162 138 l28 53 0 1304 c0 1291 0 1304 -20 1324 -24 24 -77 27 -106 6z"/>
<path d="M1050 2850 c-31 -31 -27 -93 6 -119 27 -21 30 -21 1009 -21 979 0
982 0 1009 21 33 26 37 88 6 119 -20 20 -33 20 -1015 20 -982 0 -995 0 -1015
-20z"/>
<path d="M4163 2635 c-171 -38 -334 -187 -381 -346 l-17 -58 -412 -3 c-411 -3
-413 -3 -435 -25 -28 -28 -29 -84 -3 -113 18 -20 27 -20 432 -20 l413 0 0 -32
c1 -49 42 -158 85 -222 70 -105 190 -190 313 -218 l52 -13 0 -397 0 -398
-1215 0 -1215 0 0 640 0 640 440 0 c427 0 441 1 460 20 26 26 26 80 1 111
l-19 24 -497 0 -497 0 -24 -28 -24 -29 2 -748 c3 -704 4 -750 21 -767 17 -17
86 -18 1335 -21 927 -2 1325 1 1343 9 15 5 31 22 38 35 8 17 11 160 11 469 l0
443 41 7 c79 13 192 80 260 153 110 116 155 239 146 397 -7 143 -57 253 -158
353 -126 124 -320 178 -496 137z m274 -180 c77 -34 154 -112 190 -189 24 -53
28 -73 28 -151 0 -77 -4 -98 -27 -147 -15 -32 -47 -79 -72 -106 -211 -225
-576 -114 -636 193 -26 135 38 284 158 367 106 73 244 86 359 33z"/>
<path d="M4152 2274 c-47 -33 -46 -103 2 -143 16 -13 15 -15 -3 -35 -46 -49
-46 -107 1 -140 33 -24 63 -20 101 13 l33 30 27 -27 c21 -20 37 -27 68 -27 77
0 105 76 50 137 l-29 33 29 33 c37 42 38 84 3 119 -21 21 -32 24 -62 19 -20
-3 -47 -17 -61 -30 l-25 -25 -33 30 c-38 33 -68 37 -101 13z"/>
<path d="M345 2525 c-35 -34 -34 -86 1 -114 l27 -21 1341 0 c1337 0 1342 0
1364 20 33 31 30 92 -4 119 l-27 21 -1339 0 -1339 0 -24 -25z"/>
<path d="M364 2216 c-48 -21 -61 -89 -24 -126 19 -19 33 -20 549 -20 l530 0
20 26 c28 35 26 67 -3 101 l-24 28 -509 2 c-411 2 -514 0 -539 -11z"/>
<path d="M342 1877 c-27 -29 -28 -77 -3 -108 l19 -24 513 -3 c355 -2 522 1
540 8 51 21 63 86 24 125 l-24 25 -524 0 -524 0 -21 -23z"/>
<path d="M2269 1857 c-24 -19 -30 -31 -180 -424 -77 -203 -140 -383 -141 -402
0 -45 29 -73 77 -73 48 0 66 19 100 110 l27 72 173 0 173 0 27 -72 c34 -94 47
-108 101 -108 50 0 74 25 74 75 0 43 -283 784 -310 812 -25 26 -93 32 -121 10z
m116 -419 l52 -138 -112 0 -113 0 57 149 c31 82 58 144 60 138 2 -7 27 -74 56
-149z"/>
<path d="M3295 1805 c-24 -23 -25 -30 -25 -139 l0 -115 -42 19 c-54 25 -166
26 -231 4 -61 -20 -141 -93 -175 -158 -23 -44 -27 -63 -27 -141 0 -78 4 -97
27 -141 34 -65 114 -138 175 -158 65 -22 177 -21 231 4 42 19 43 19 62 0 31
-31 93 -27 120 7 20 26 21 33 18 416 l-3 389 -24 19 c-32 26 -77 24 -106 -6z
m-104 -398 c45 -29 83 -106 75 -150 -28 -148 -200 -186 -290 -64 -15 21 -21
43 -21 82 0 60 20 95 75 133 45 30 115 30 161 -1z"/>
<path d="M3725 1576 c-51 -19 -100 -72 -116 -126 -10 -33 -10 -51 0 -88 17
-67 56 -102 155 -140 107 -42 125 -55 110 -79 -18 -30 -92 -29 -134 1 -68 50
-102 54 -142 18 -25 -21 -23 -83 2 -115 11 -14 48 -39 82 -56 51 -26 73 -31
132 -31 141 1 226 75 226 197 0 85 -53 153 -149 189 -119 45 -134 53 -121 69
19 23 67 18 119 -12 67 -37 121 -20 138 45 9 38 -15 73 -76 106 -66 35 -164
45 -226 22z"/>
<path d="M345 1555 c-35 -34 -34 -86 1 -114 26 -20 39 -21 294 -21 266 0 267
0 288 23 32 34 30 89 -4 116 -25 20 -39 21 -291 21 l-264 0 -24 -25z"/>
</g>
</svg>
