<?xml version="1.0" standalone="no"?>
<!DOCTYPE svg PUBLIC "-//W3C//DTD SVG 20010904//EN"
 "http://www.w3.org/TR/2001/REC-SVG-20010904/DTD/svg10.dtd">
<svg version="1.0" xmlns="http://www.w3.org/2000/svg"
 width="512.000000pt" height="512.000000pt" viewBox="0 0 512.000000 512.000000"
 preserveAspectRatio="xMidYMid meet">
<metadata>
Created by potrace 1.16, written by Peter Selinger 2001-2019
</metadata>
<g transform="translate(0.000000,512.000000) scale(0.100000,-0.100000)"
fill="#FFFFFF" stroke="none">
<path d="M17 5102 c-16 -17 -17 -127 -17 -1370 0 -1339 0 -1352 20 -1372 20
-20 33 -20 1365 -20 l1346 0 24 25 25 24 0 1344 0 1344 -23 21 -23 22 -1351 0
c-1295 0 -1351 -1 -1366 -18z m2603 -854 l0 -721 -41 59 c-23 32 -135 199
-250 369 -239 357 -242 360 -354 360 -112 0 -116 -4 -348 -350 -110 -165 -213
-317 -228 -337 l-27 -38 -71 109 c-40 60 -82 118 -94 129 -52 49 -154 67 -220
38 -18 -7 -46 -29 -63 -47 -18 -19 -197 -280 -399 -581 -201 -302 -368 -548
-371 -548 -2 0 -4 513 -4 1140 l0 1140 1235 0 1235 0 0 -722z m-613 -110 c11
-13 153 -222 317 -465 l296 -442 0 -365 0 -366 -258 0 -258 0 -316 472 -316
471 225 336 c233 346 258 381 278 381 6 0 21 -10 32 -22z m-508 -1028 l406
-605 -417 -3 c-230 -1 -607 -1 -838 0 l-420 3 386 575 c212 316 397 590 411
608 17 22 32 32 45 30 15 -2 137 -176 427 -608z"/>
<path d="M603 4750 c-97 -20 -179 -84 -223 -175 -34 -72 -34 -179 1 -255 36
-78 71 -114 141 -149 51 -26 73 -31 133 -31 103 0 159 22 226 89 70 71 93 131
87 234 -4 84 -30 146 -86 202 -68 69 -183 104 -279 85z m137 -179 c42 -30 70
-80 70 -125 0 -155 -212 -202 -279 -62 -25 52 -26 69 -2 121 21 47 38 63 88
81 44 15 87 10 123 -15z"/>
<path d="M3060 5100 c-26 -26 -26 -80 -1 -111 l19 -24 1002 0 1002 0 19 24
c25 31 25 85 -1 111 -20 20 -33 20 -1020 20 -987 0 -1000 0 -1020 -20z"/>
<path d="M3083 4690 c-45 -18 -58 -95 -23 -130 20 -20 33 -20 858 -20 817 0
839 1 856 19 10 11 18 36 19 57 1 28 -5 42 -27 60 l-27 24 -817 -1 c-449 0
-827 -4 -839 -9z"/>
<path d="M3066 4249 c-37 -29 -37 -89 0 -118 27 -21 30 -21 1018 -21 985 0
992 0 1014 20 15 15 22 33 22 60 0 27 -7 45 -22 60 -22 20 -29 20 -1014 20
-988 0 -991 0 -1018 -21z"/>
<path d="M3060 3820 c-26 -26 -26 -80 -1 -111 l19 -24 540 -3 540 -3 28 24
c22 19 28 33 27 61 -1 21 -9 46 -19 57 -17 18 -36 19 -566 19 -535 0 -548 0
-568 -20z"/>
<path d="M3066 3339 l-26 -20 0 -469 0 -469 26 -20 c27 -21 30 -21 1014 -21
984 0 987 0 1014 21 l26 20 0 469 0 469 -26 20 c-27 21 -30 21 -1014 21 -984
0 -987 0 -1014 -21z m1904 -489 l0 -350 -885 0 -885 0 0 350 0 350 885 0 885
0 0 -350z"/>
<path d="M16 2008 c-20 -29 -20 -77 0 -106 l15 -22 2529 0 2529 0 15 22 c20
29 20 77 0 106 l-15 22 -2529 0 -2529 0 -15 -22z"/>
<path d="M16 1538 c-20 -29 -20 -77 0 -106 l15 -22 2529 0 2529 0 15 22 c20
29 20 77 0 106 l-15 22 -2529 0 -2529 0 -15 -22z"/>
<path d="M16 1068 c-20 -29 -20 -77 0 -106 l15 -22 2003 0 c1928 0 2004 1
2019 18 23 26 22 94 -1 115 -17 16 -172 17 -2020 17 l-2001 0 -15 -22z"/>
<path d="M17 602 c-15 -16 -17 -52 -17 -294 0 -254 1 -276 18 -291 17 -16 208
-17 2544 -17 2433 0 2526 1 2541 18 15 16 17 52 17 294 0 254 -1 276 -18 291
-17 16 -208 17 -2544 17 -2433 0 -2526 -1 -2541 -18z m4953 -292 l0 -160
-2410 0 -2410 0 0 160 0 160 2410 0 2410 0 0 -160z"/>
</g>
</svg>
