<?xml version="1.0" standalone="no"?>
<!DOCTYPE svg PUBLIC "-//W3C//DTD SVG 20010904//EN"
 "http://www.w3.org/TR/2001/REC-SVG-20010904/DTD/svg10.dtd">
<svg version="1.0" xmlns="http://www.w3.org/2000/svg"
 width="512.000000pt" height="512.000000pt" viewBox="0 0 512.000000 512.000000"
 preserveAspectRatio="xMidYMid meet">
<metadata>
Created by potrace 1.16, written by Peter Selinger 2001-2019
</metadata>
<g transform="translate(0.000000,512.000000) scale(0.100000,-0.100000)"
fill="#FFFFFF" stroke="none">
<path d="M1517 4944 c-163 -39 -326 -168 -404 -319 -76 -146 -74 -129 -71
-818 l3 -612 28 -83 c16 -46 27 -85 25 -87 -2 -1 -176 -103 -388 -226 -419
-244 -463 -277 -516 -384 l-29 -60 -3 -1077 c-2 -1069 -2 -1078 18 -1098 20
-20 27 -20 2310 -20 2047 0 2295 2 2328 16 49 20 100 70 123 119 18 38 19 97
19 1425 0 1328 -1 1387 -19 1425 -10 22 -34 54 -52 72 -70 66 -16 63 -1009 63
-993 0 -939 3 -1008 -63 -56 -54 -66 -81 -72 -204 l-5 -113 -105 62 c-58 33
-106 62 -108 63 -2 2 9 41 25 87 l28 83 3 676 c3 668 2 677 -19 733 -42 114
-161 196 -283 196 -50 0 -55 2 -77 35 -29 43 -94 91 -150 110 -58 21 -507 20
-592 -1z m507 -154 c94 -21 128 -75 134 -214 l4 -101 -37 -14 c-23 -8 -78 -52
-141 -112 -96 -93 -105 -99 -144 -99 -39 0 -48 6 -140 95 -118 115 -157 135
-260 135 -85 0 -134 -18 -193 -70 -42 -36 -43 -34 -21 41 23 79 47 119 104
182 84 92 175 140 295 156 84 12 352 12 399 1z m376 -183 c51 -33 71 -76 77
-163 l6 -77 -57 46 c-31 26 -68 50 -81 53 -24 6 -25 9 -25 85 0 76 1 79 24 79
12 0 38 -10 56 -23z m-819 -393 c121 -115 157 -134 259 -134 102 0 138 19 259
134 94 90 102 96 142 96 39 0 47 -5 141 -97 l100 -98 -5 -425 c-4 -464 -6
-477 -67 -604 -65 -136 -201 -261 -342 -316 -351 -136 -739 64 -844 436 -14
50 -18 125 -21 484 l-5 425 100 98 c94 92 102 97 141 97 40 0 48 -6 142 -96z
m3163 -1108 c45 -19 56 -55 56 -192 l0 -114 -920 0 -920 0 0 114 c0 134 11
173 54 192 47 20 1681 20 1730 0z m-3274 -459 c130 -65 224 -87 370 -87 146 0
240 22 370 87 78 39 112 64 189 139 l93 91 154 -90 154 -89 0 -753 0 -753
-202 -144 c-112 -80 -208 -147 -214 -151 -9 -5 -1048 173 -1098 189 -47 15
-103 64 -131 116 l-30 53 -3 253 -4 252 -80 0 -79 0 3 -282 3 -283 27 -57 c36
-78 108 -152 182 -188 53 -27 132 -43 596 -125 294 -52 538 -95 543 -95 4 0 7
-93 7 -206 l0 -205 -652 4 c-741 4 -718 2 -893 87 -172 83 -281 193 -365 365
-86 176 -85 170 -85 880 0 695 -2 675 73 747 20 20 206 135 414 256 l376 219
94 -91 c76 -75 111 -100 188 -139z m3330 -1121 c0 -805 -3 -1122 -11 -1146
-21 -59 -28 -60 -536 -60 l-458 1 57 30 c103 53 143 154 100 251 -45 103 -122
124 -328 89 -143 -25 -197 -26 -281 -6 -77 18 -203 74 -203 90 0 6 12 70 26
141 23 112 25 135 15 179 -20 90 -105 164 -188 165 l-33 0 0 690 0 690 920 0
920 0 0 -1114z m-1790 -455 c7 -14 2 -58 -20 -167 -30 -148 -35 -198 -24 -229
4 -9 54 -40 113 -69 210 -106 321 -123 561 -86 217 34 216 21 -9 -89 -86 -42
-181 -83 -211 -91 -42 -10 -159 -15 -498 -18 l-442 -4 2 218 3 218 235 168
c135 97 244 168 257 168 12 0 27 -9 33 -19z m-2571 -632 c42 -41 90 -85 106
-97 l30 -21 -127 -1 -128 0 0 128 1 127 21 -30 c12 -16 56 -64 97 -106z"/>
<path d="M1360 3840 l0 -80 160 0 160 0 0 80 0 80 -160 0 -160 0 0 -80z"/>
<path d="M2000 3840 l0 -80 160 0 160 0 0 80 0 80 -160 0 -160 0 0 -80z"/>
<path d="M1460 3660 c-13 -13 -20 -33 -20 -60 0 -53 27 -80 80 -80 53 0 80 27
80 80 0 27 -7 47 -20 60 -13 13 -33 20 -60 20 -27 0 -47 -7 -60 -20z"/>
<path d="M2100 3660 c-13 -13 -20 -33 -20 -60 0 -53 27 -80 80 -80 53 0 80 27
80 80 0 27 -7 47 -20 60 -13 13 -33 20 -60 20 -27 0 -47 -7 -60 -20z"/>
<path d="M1840 3365 c0 -125 -31 -165 -126 -165 l-34 0 0 -80 0 -80 70 0 c82
0 130 17 179 63 57 54 71 97 71 225 l0 112 -80 0 -80 0 0 -75z"/>
<path d="M3140 3020 c-13 -13 -20 -33 -20 -60 0 -27 7 -47 20 -60 13 -13 33
-20 60 -20 27 0 47 7 60 20 13 13 20 33 20 60 0 27 -7 47 -20 60 -13 13 -33
20 -60 20 -27 0 -47 -7 -60 -20z"/>
<path d="M3380 3020 c-13 -13 -20 -33 -20 -60 0 -27 7 -47 20 -60 13 -13 33
-20 60 -20 27 0 47 7 60 20 13 13 20 33 20 60 0 27 -7 47 -20 60 -13 13 -33
20 -60 20 -27 0 -47 -7 -60 -20z"/>
<path d="M3620 3020 c-13 -13 -20 -33 -20 -60 0 -27 7 -47 20 -60 13 -13 33
-20 60 -20 27 0 47 7 60 20 13 13 20 33 20 60 0 27 -7 47 -20 60 -13 13 -33
20 -60 20 -27 0 -47 -7 -60 -20z"/>
<path d="M3635 2314 c-138 -91 -256 -173 -262 -182 -10 -12 -13 -86 -13 -291
0 -152 4 -281 8 -288 4 -7 86 -71 182 -143 l173 -130 197 0 197 0 173 130 c96
72 178 136 182 143 4 7 8 136 8 288 0 205 -3 279 -12 291 -7 9 -125 91 -263
182 -204 136 -256 166 -285 166 -29 0 -81 -30 -285 -166z m450 -126 c85 -57
155 -105 155 -108 0 -10 -304 -205 -320 -205 -16 0 -320 195 -320 205 1 8 304
209 318 209 6 1 82 -45 167 -101z m-355 -405 c123 -82 162 -103 190 -103 28 0
67 21 190 103 85 57 167 112 183 121 l27 18 0 -138 -1 -139 -138 -102 -138
-103 -123 0 -123 0 -138 103 -138 102 -1 139 0 138 28 -18 c15 -9 97 -64 182
-121z"/>
<path d="M3520 960 l0 -80 120 0 120 0 0 80 0 80 -120 0 -120 0 0 -80z"/>
<path d="M3920 960 l0 -80 200 0 200 0 0 80 0 80 -200 0 -200 0 0 -80z"/>
</g>
</svg>
