<?xml version="1.0" standalone="no"?>
<!DOCTYPE svg PUBLIC "-//W3C//DTD SVG 20010904//EN"
 "http://www.w3.org/TR/2001/REC-SVG-20010904/DTD/svg10.dtd">
<svg version="1.0" xmlns="http://www.w3.org/2000/svg"
 width="512.000000pt" height="512.000000pt" viewBox="0 0 512.000000 512.000000"
 preserveAspectRatio="xMidYMid meet">
<metadata>
Created by potrace 1.16, written by Peter Selinger 2001-2019
</metadata>
<g transform="translate(0.000000,512.000000) scale(0.100000,-0.100000)"
fill="#FFFFFF" stroke="none">
<path d="M3298 4702 c-256 -255 -258 -258 -258 -300 0 -70 21 -82 140 -82
l100 0 0 -80 0 -80 -1417 -2 -1418 -3 -60 -29 c-77 -38 -153 -114 -191 -191
l-29 -60 -3 -217 -3 -218 79 0 80 0 4 183 c3 158 7 188 25 227 25 54 74 103
128 127 38 17 116 18 1423 21 l1382 2 0 -760 0 -760 80 0 80 0 0 978 c0 808
-2 981 -14 997 -7 10 -31 21 -55 24 l-41 6 135 135 135 135 135 -135 135 -135
-41 -6 c-24 -3 -48 -14 -55 -24 -12 -16 -14 -183 -14 -957 l0 -938 80 0 80 0
0 721 0 721 183 -4 c204 -4 243 -14 304 -79 72 -76 68 -22 71 -936 l3 -823 80
0 79 0 -2 858 -3 857 -29 60 c-17 33 -53 83 -80 111 -28 27 -78 63 -111 80
l-60 29 -217 3 -218 3 0 80 0 79 100 0 c119 0 140 12 140 82 0 42 -2 45 -258
300 l-257 258 -45 0 -45 0 -257 -258z"/>
<path d="M4080 4876 l0 -83 49 -6 c128 -15 243 -130 258 -258 l6 -49 83 0 84
0 0 43 c0 212 -224 437 -436 437 l-44 0 0 -84z"/>
<path d="M560 3760 l0 -80 80 0 80 0 0 80 0 80 -80 0 -80 0 0 -80z"/>
<path d="M880 3760 l0 -80 80 0 80 0 0 80 0 80 -80 0 -80 0 0 -80z"/>
<path d="M1200 3760 l0 -80 80 0 80 0 0 80 0 80 -80 0 -80 0 0 -80z"/>
<path d="M2500 3740 c-20 -20 -20 -33 -20 -920 l0 -900 -80 0 -80 0 0 620 c0
607 0 620 -20 640 -19 19 -33 20 -300 20 -267 0 -281 -1 -300 -20 -20 -20 -20
-33 -20 -640 l0 -620 -80 0 -80 0 0 340 c0 327 -1 341 -20 360 -19 19 -33 20
-300 20 -267 0 -281 -1 -300 -20 -19 -19 -20 -33 -20 -360 l0 -340 -160 0
-160 0 0 -80 0 -80 1040 0 1040 0 0 920 0 920 160 0 160 0 0 -640 0 -640 80 0
80 0 0 700 c0 687 0 700 -20 720 -19 19 -33 20 -300 20 -267 0 -281 -1 -300
-20z m-340 -1260 l0 -560 -160 0 -160 0 0 560 0 560 160 0 160 0 0 -560z
m-800 -280 l0 -280 -160 0 -160 0 0 280 0 280 160 0 160 0 0 -280z"/>
<path d="M162 2263 l3 -1018 29 -60 c38 -77 114 -153 191 -191 l60 -29 718 -3
c394 -1 717 -6 717 -10 1 -4 -41 -148 -92 -319 l-93 -313 -87 0 -88 0 0 -80 0
-80 880 0 880 0 0 80 0 80 -87 0 -88 0 -49 168 c-27 92 -52 170 -55 174 -6 7
-140 -29 -154 -42 -5 -4 10 -69 32 -143 23 -75 41 -140 41 -146 0 -13 -1040
-16 -1040 -3 -1 4 41 148 92 319 l93 313 288 0 287 0 0 80 0 79 -1063 3
c-1059 3 -1062 3 -1107 24 -89 42 -134 112 -146 228 l-7 66 1122 0 1121 0 0
80 0 80 -1120 0 -1120 0 0 840 0 840 -80 0 -80 0 2 -1017z"/>
<path d="M3560 2399 c-147 -17 -319 -85 -446 -174 -33 -24 -96 -81 -140 -128
-149 -158 -230 -335 -254 -558 -44 -399 172 -788 535 -964 156 -76 222 -90
425 -90 197 0 260 13 412 82 l79 36 207 -206 c133 -132 220 -212 244 -222 48
-19 148 -19 196 1 49 20 100 70 123 119 23 50 25 151 4 203 -10 24 -90 111
-222 244 l-206 207 36 79 c69 152 82 215 82 412 0 195 -13 262 -79 406 -176
379 -579 604 -996 553z m315 -189 c81 -20 214 -87 292 -146 93 -72 163 -158
219 -269 138 -280 108 -594 -83 -843 -103 -134 -284 -249 -452 -287 -104 -23
-255 -21 -356 5 -104 26 -244 96 -322 160 -123 102 -232 280 -267 437 -23 102
-21 260 4 359 26 102 96 243 158 318 194 233 510 337 807 266z m911 -1783 c12
-23 13 -32 2 -55 -18 -37 -60 -57 -90 -41 -13 6 -105 93 -205 192 l-183 182
52 52 53 53 178 -177 c98 -98 185 -191 193 -206z"/>
<path d="M3518 2064 c-219 -52 -405 -238 -462 -461 -20 -77 -20 -238 -1 -322
52 -219 247 -414 466 -466 82 -19 236 -19 318 0 166 40 329 167 409 321 52
102 72 183 72 304 0 121 -20 202 -72 304 -80 154 -243 281 -409 321 -79 18
-244 18 -321 -1z m292 -171 c79 -22 126 -49 186 -105 105 -99 154 -210 154
-347 0 -129 -39 -229 -128 -323 -92 -98 -206 -148 -341 -148 -138 0 -247 47
-343 148 -89 93 -128 191 -128 322 0 132 39 229 129 323 128 135 291 180 471
130z"/>
<path d="M3552 1739 c-102 -40 -192 -163 -192 -264 l0 -35 85 0 c81 0 85 1 85
23 0 52 75 127 128 127 21 0 22 4 22 85 l0 85 -37 -1 c-21 0 -62 -9 -91 -20z"/>
</g>
</svg>
