<?xml version="1.0" standalone="no"?>
<!DOCTYPE svg PUBLIC "-//W3C//DTD SVG 20010904//EN"
 "http://www.w3.org/TR/2001/REC-SVG-20010904/DTD/svg10.dtd">
<svg version="1.0" xmlns="http://www.w3.org/2000/svg"
 width="512.000000pt" height="512.000000pt" viewBox="0 0 512.000000 512.000000"
 preserveAspectRatio="xMidYMid meet">
<metadata>
Created by potrace 1.16, written by Peter Selinger 2001-2019
</metadata>
<g transform="translate(0.000000,512.000000) scale(0.100000,-0.100000)"
fill="#FFFFFF" stroke="none">
<path d="M2110 5114 c-14 -2 -65 -9 -115 -15 -120 -15 -338 -70 -472 -120
-463 -171 -878 -502 -1146 -914 -257 -396 -377 -803 -377 -1280 0 -282 33
-494 117 -745 168 -507 518 -952 972 -1237 l84 -53 -145 0 c-135 0 -146 -1
-164 -21 -18 -19 -19 -42 -22 -300 l-3 -279 -220 0 -219 0 0 225 0 225 133 0
c154 0 167 6 167 77 0 70 -9 73 -227 73 -180 0 -191 -1 -209 -21 -18 -20 -19
-41 -19 -354 0 -314 1 -334 19 -354 l19 -21 2076 2 2076 3 60 24 c121 48 215
124 279 224 38 59 306 683 332 772 12 43 15 84 12 169 -8 192 -50 269 -271
499 -124 128 -135 137 -170 137 -49 0 -77 -28 -77 -76 0 -32 11 -49 95 -139
l95 -102 -158 -151 -158 -150 -109 115 c-102 108 -108 116 -95 137 207 328
312 588 370 916 28 156 39 503 21 661 -65 571 -338 1106 -751 1475 -73 65 -87
74 -121 74 -50 0 -79 -28 -79 -75 0 -30 9 -44 72 -102 168 -158 269 -276 372
-433 240 -365 356 -754 356 -1190 0 -202 -18 -354 -64 -533 -45 -173 -82 -274
-161 -432 -225 -455 -604 -823 -1057 -1027 l-108 -48 -785 0 -785 0 -102 45
c-594 264 -1046 788 -1213 1408 -52 190 -67 301 -72 523 -6 239 9 387 57 580
99 393 286 721 579 1015 350 349 764 556 1251 624 131 18 413 21 535 5 307
-39 577 -128 831 -275 128 -73 144 -76 185 -36 26 27 30 37 25 64 -7 40 -34
62 -156 129 -254 141 -539 234 -834 273 -106 14 -451 19 -526 9z m2831 -3813
c17 -46 20 -73 17 -146 -5 -108 -38 -191 -110 -270 l-45 -49 -17 32 c-9 18
-57 77 -106 131 l-90 99 153 145 c170 163 159 160 198 58z m-405 -389 c63 -68
113 -129 111 -135 -7 -21 -104 -25 -631 -26 l-519 -1 84 53 c175 110 365 270
494 417 l80 91 133 -138 c73 -76 184 -194 248 -261z m184 -398 c-52 -122 -93
-198 -110 -209 -6 -4 -10 47 -10 143 l0 149 48 7 c26 4 63 13 82 20 19 7 36
11 38 11 1 -1 -20 -56 -48 -121z m-3280 -139 l0 -225 -220 0 -220 0 0 225 0
225 220 0 220 0 0 -225z m600 0 l0 -225 -220 0 -220 0 0 225 0 225 220 0 220
0 0 -225z m600 0 l0 -225 -220 0 -220 0 0 225 0 225 220 0 220 0 0 -225z m600
0 l0 -225 -220 0 -220 0 0 225 0 225 220 0 220 0 0 -225z m600 0 l0 -225 -220
0 -220 0 0 225 0 225 220 0 220 0 0 -225z m600 15 l0 -209 -37 -11 c-21 -6
-120 -14 -220 -17 l-183 -6 0 227 0 226 220 0 220 0 0 -210z"/>
<path d="M2105 4809 c-441 -68 -716 -315 -640 -574 69 -237 333 -529 598 -660
93 -46 198 -75 272 -75 114 0 284 65 414 158 92 64 242 212 313 306 108 144
166 290 154 391 -23 197 -242 366 -571 441 -83 18 -447 28 -540 13z m547 -183
c179 -45 339 -140 384 -228 l14 -27 -57 25 c-87 39 -278 91 -395 108 -61 9
-172 16 -263 16 -91 0 -202 -7 -263 -16 -117 -17 -308 -69 -395 -108 l-57 -25
14 27 c26 50 114 122 199 163 218 104 559 131 819 65z m-67 -281 c166 -30 435
-120 435 -146 0 -3 -23 -42 -51 -85 -70 -109 -260 -294 -364 -356 -214 -127
-338 -125 -554 9 -99 61 -283 243 -350 347 -28 43 -51 82 -51 86 0 24 259 113
410 140 136 26 398 28 525 5z"/>
<path d="M923 4092 c-162 -58 -336 -243 -448 -477 -58 -122 -88 -208 -121
-350 -25 -106 -28 -139 -27 -285 0 -136 4 -179 21 -242 27 -101 63 -170 120
-230 83 -89 172 -116 322 -97 98 12 288 72 319 100 32 30 29 91 -5 118 -15 12
-33 21 -41 21 -8 0 -61 -15 -116 -34 -56 -19 -119 -38 -139 -41 l-36 -7 -7 47
c-4 25 -5 126 -2 223 8 257 44 407 156 637 65 133 126 228 216 334 l60 71 43
-47 c99 -111 199 -294 248 -458 20 -69 27 -113 28 -190 1 -94 -1 -105 -31
-166 -33 -66 -108 -152 -197 -224 -43 -36 -48 -44 -48 -80 0 -47 28 -75 77
-75 73 0 238 160 305 295 94 189 71 422 -69 710 -102 208 -244 380 -360 437
-63 31 -194 36 -268 10z m78 -188 c-22 -25 -66 -85 -99 -132 -208 -305 -303
-618 -303 -1000 l0 -165 -24 23 c-62 58 -100 220 -91 390 20 386 229 788 474
911 20 10 48 18 60 19 22 0 21 -3 -17 -46z"/>
<path d="M3508 4095 c-166 -63 -364 -332 -463 -628 -100 -298 -61 -511 128
-701 224 -225 633 -395 852 -355 280 50 397 441 275 914 -92 354 -296 651
-520 753 -68 31 -212 40 -272 17z m210 -169 c164 -83 310 -288 402 -563 41
-125 70 -289 70 -394 -1 -137 -47 -296 -99 -343 -18 -17 -19 -12 -24 191 -3
162 -9 231 -26 312 -59 280 -189 554 -360 759 -44 53 -49 62 -31 62 11 0 42
-11 68 -24z m-188 -111 c151 -173 273 -408 333 -640 36 -138 47 -233 47 -393
0 -155 -7 -212 -25 -212 -7 0 -53 12 -101 26 -259 74 -514 255 -595 419 -32
66 -34 75 -33 170 1 77 8 121 28 190 49 163 146 345 247 458 23 26 43 47 44
45 1 -2 26 -30 55 -63z"/>
<path d="M2240 2994 c-83 -36 -131 -112 -131 -209 0 -134 91 -225 226 -225
135 0 225 90 225 225 0 99 -48 174 -132 209 -47 20 -142 20 -188 0z"/>
<path d="M1255 2305 c-214 -35 -416 -117 -504 -205 -64 -64 -91 -134 -91 -236
0 -101 13 -150 71 -269 60 -125 122 -206 246 -326 386 -369 920 -502 1139
-282 82 82 120 234 111 448 -13 296 -103 556 -244 706 -71 75 -143 117 -253
149 -99 29 -342 36 -475 15z m363 -155 c111 -18 171 -47 238 -114 103 -103
176 -287 205 -512 11 -89 9 -278 -4 -290 -3 -3 -50 6 -104 20 -403 104 -752
361 -966 711 -20 33 -37 66 -37 72 0 24 209 92 349 112 81 12 246 12 319 1z
m-603 -499 c213 -253 534 -457 855 -542 47 -12 89 -26 94 -30 14 -13 -93 -39
-160 -39 -122 0 -336 73 -479 163 -152 96 -320 252 -398 370 -69 104 -100 183
-105 272 l-4 80 59 -90 c33 -49 95 -132 138 -184z"/>
<path d="M3028 2310 c-215 -37 -353 -136 -450 -326 -141 -275 -181 -697 -85
-907 130 -284 600 -257 1045 60 86 61 240 210 304 293 56 74 141 242 157 312
18 77 14 190 -10 253 -54 146 -277 264 -584 310 -105 16 -297 18 -377 5z m337
-160 c149 -22 355 -88 355 -115 0 -23 -133 -214 -207 -298 -161 -183 -375
-330 -617 -427 -86 -34 -275 -85 -283 -76 -15 15 -14 218 1 324 32 214 100
376 201 478 64 65 127 96 228 113 73 12 239 12 322 1z m465 -405 c-93 -280
-465 -594 -806 -681 -53 -13 -124 -24 -158 -24 -62 0 -173 26 -162 37 3 4 57
21 119 39 403 116 771 394 988 747 l34 55 3 -55 c2 -36 -4 -76 -18 -118z"/>
</g>
</svg>
