<?xml version="1.0" standalone="no"?>
<!DOCTYPE svg PUBLIC "-//W3C//DTD SVG 20010904//EN"
 "http://www.w3.org/TR/2001/REC-SVG-20010904/DTD/svg10.dtd">
<svg version="1.0" xmlns="http://www.w3.org/2000/svg"
 width="512.000000pt" height="512.000000pt" viewBox="0 0 512.000000 512.000000"
 preserveAspectRatio="xMidYMid meet">
<metadata>
Created by potrace 1.16, written by Peter Selinger 2001-2019
</metadata>
<g transform="translate(0.000000,512.000000) scale(0.100000,-0.100000)"
fill="#FFFFFF" stroke="none">
<path d="M2390 4606 c-1185 -282 -2172 -518 -2192 -525 -52 -17 -134 -94 -165
-155 -18 -36 -27 -72 -30 -121 -4 -63 4 -106 94 -455 l98 -385 5 -1265 5
-1265 26 -71 c64 -176 202 -304 374 -350 41 -11 417 -14 2061 -14 1971 0 2013
0 2075 20 179 55 317 199 363 376 14 55 16 212 16 1402 0 1334 0 1339 -20
1365 -12 15 -38 31 -58 37 -25 6 -646 10 -1867 11 l-1830 0 1860 424 c1851
421 1859 423 1887 454 20 22 28 42 28 67 0 48 -184 743 -210 794 -30 59 -73
103 -132 135 -46 25 -65 30 -143 32 -88 2 -136 -9 -2245 -511z m2297 267 c25
-25 38 -62 107 -326 43 -164 77 -300 75 -301 -2 -2 -100 -25 -217 -51 l-213
-48 -285 284 c-156 156 -284 286 -284 289 0 8 711 178 751 179 28 1 44 -6 66
-26z m-797 -498 c156 -156 282 -286 280 -288 -3 -2 -178 -43 -390 -91 l-384
-87 -283 283 c-158 158 -278 285 -271 287 24 9 733 179 748 180 8 1 143 -127
300 -284z m-765 -524 c-3 -2 -177 -43 -387 -92 l-383 -87 -277 276 c-153 152
-278 279 -278 282 0 3 172 46 383 96 l382 91 282 -281 c155 -154 280 -282 278
-285z m-1310 39 c154 -154 276 -280 271 -280 -4 0 -176 -38 -382 -85 -206 -47
-380 -85 -386 -85 -7 0 -136 123 -287 274 l-273 273 154 37 c84 20 254 60 378
90 124 30 230 55 235 55 6 1 136 -125 290 -279z m-1040 -240 c148 -148 267
-271 265 -273 -7 -7 -674 -157 -678 -153 -7 7 -142 542 -142 563 0 46 48 82
145 108 50 13 101 24 115 24 20 1 80 -54 295 -269z m205 -675 c0 -3 -70 -145
-155 -315 l-155 -310 -120 0 -120 0 0 315 0 315 275 0 c151 0 275 -2 275 -5z
m1070 0 c0 -3 -70 -145 -155 -315 l-155 -310 -405 0 c-223 0 -405 2 -405 5 0
3 70 145 155 315 l155 310 405 0 c223 0 405 -2 405 -5z m913 -310 l-158 -315
-407 0 -408 0 157 315 158 315 407 0 408 0 -157 -315z m1217 310 c0 -3 -70
-145 -155 -315 l-155 -310 -405 0 -405 0 157 315 158 315 402 0 c222 0 403 -2
403 -5z m720 -310 l0 -315 -385 0 c-212 0 -385 2 -385 5 0 3 70 145 155 315
l155 310 230 0 230 0 0 -315z m-2 -1372 l-3 -838 -25 -50 c-34 -70 -108 -139
-175 -164 -56 -21 -56 -21 -2030 -21 -1961 0 -1975 0 -2029 20 -69 26 -134 83
-171 151 l-30 54 -3 843 -2 842 2235 0 2236 0 -3 -837z"/>
</g>
</svg>
