<?xml version="1.0" standalone="no"?>
<!DOCTYPE svg PUBLIC "-//W3C//DTD SVG 20010904//EN"
 "http://www.w3.org/TR/2001/REC-SVG-20010904/DTD/svg10.dtd">
<svg version="1.0" xmlns="http://www.w3.org/2000/svg"
 width="512.000000pt" height="512.000000pt" viewBox="0 0 512.000000 512.000000"
 preserveAspectRatio="xMidYMid meet">
<metadata>
Created by potrace 1.16, written by Peter Selinger 2001-2019
</metadata>
<g transform="translate(0.000000,512.000000) scale(0.100000,-0.100000)"
fill="#FFFFFF" stroke="none">
<path d="M344 5099 c-19 -21 -19 -76 -22 -2358 -2 -1486 1 -2366 7 -2418 17
-138 82 -233 201 -291 l55 -27 2005 -3 2004 -2 52 25 c59 29 98 75 125 146 18
47 19 116 19 1743 0 1627 -1 1694 -18 1709 -16 14 -45 17 -190 17 l-172 0 0
723 c0 689 -1 725 -18 740 -17 16 -172 17 -2024 17 l-2005 0 -19 -21z m3926
-2544 l0 -2415 -1817 2 c-1753 3 -1819 4 -1853 22 -49 26 -79 55 -103 101
l-22 40 -3 2333 -2 2332 1900 0 1900 0 0 -2415z m378 -687 c-3 -1485 -4 -1626
-19 -1653 -32 -57 -53 -68 -139 -73 l-80 -5 0 1677 0 1676 120 0 120 0 -2
-1622z"/>
<path d="M3448 4706 c-21 -8 -49 -21 -62 -30 -61 -40 -103 -137 -89 -208 16
-84 59 -126 206 -198 124 -61 148 -85 149 -149 1 -118 -138 -170 -289 -109
l-61 25 -11 -43 c-6 -24 -11 -46 -11 -49 0 -3 21 -16 48 -28 39 -18 66 -22
153 -22 98 0 110 2 164 30 46 23 66 42 90 79 27 44 30 58 30 127 0 70 -3 82
-30 121 -26 36 -50 53 -155 105 -69 34 -135 74 -147 88 -49 56 -16 149 63 175
39 13 120 6 173 -16 19 -8 35 -13 36 -12 6 6 35 81 35 88 0 5 -21 15 -47 24
-57 20 -193 20 -245 2z"/>
<path d="M940 4305 l0 -405 50 0 50 0 2 320 3 320 49 -88 c27 -48 114 -192
193 -319 l145 -233 59 0 59 0 0 405 0 405 -56 0 -56 0 4 -318 3 -319 -48 90
c-27 50 -114 193 -193 319 l-145 228 -60 0 -59 0 0 -405z"/>
<path d="M1720 4305 l0 -405 230 0 230 0 0 50 0 50 -175 0 -175 0 0 140 0 140
155 0 155 0 0 45 0 45 -155 0 -155 0 0 120 0 120 165 0 165 0 0 50 0 50 -220
0 -220 0 0 -405z"/>
<path d="M2244 4688 c3 -13 49 -195 103 -405 l96 -383 58 0 c56 0 58 1 68 33
24 76 151 553 151 568 0 10 4 20 8 23 5 3 14 -25 21 -62 7 -37 37 -168 66
-292 30 -124 57 -235 60 -247 5 -21 11 -23 64 -23 l59 0 111 393 c61 216 111
398 111 405 0 8 -19 12 -55 12 -30 0 -55 -2 -55 -4 0 -3 -24 -96 -54 -208 -30
-112 -66 -258 -82 -326 l-28 -123 -31 143 c-17 79 -51 228 -75 331 l-45 188
-59 -3 -59 -3 -74 -280 c-40 -154 -76 -297 -79 -317 -4 -21 -10 -38 -14 -38
-4 0 -13 28 -19 63 -10 48 -94 419 -126 555 -5 20 -11 22 -66 22 -59 0 -61 -1
-55 -22z"/>
<path d="M798 3623 c-24 -28 -28 -50 -17 -83 8 -22 20 -32 47 -40 26 -8 498
-10 1515 -8 l1479 3 19 24 c26 32 24 73 -4 99 l-23 22 -1501 0 c-1416 0 -1501
-1 -1515 -17z"/>
<path d="M818 3019 c-16 -6 -31 -22 -37 -41 -15 -44 -15 -1523 0 -1566 8 -24
20 -34 47 -42 25 -8 283 -10 799 -8 l762 3 23 23 23 23 3 762 c2 516 0 774 -8
799 -8 27 -18 39 -42 47 -41 14 -1531 14 -1570 0z m1472 -824 l0 -685 -685 0
-685 0 0 685 0 685 685 0 685 0 0 -685z"/>
<path d="M1523 2453 l-53 -4 0 -240 0 -239 98 0 c120 0 180 18 232 70 60 60
86 170 60 259 -34 120 -143 170 -337 154z m190 -80 c54 -32 77 -77 77 -149 0
-71 -11 -108 -43 -142 -32 -35 -82 -52 -148 -52 l-59 0 0 179 c0 162 2 180 18
185 33 9 123 -3 155 -21z"/>
<path d="M2001 2443 c-49 -25 -72 -62 -73 -112 -1 -59 24 -88 110 -134 104
-55 124 -97 69 -147 -26 -25 -95 -27 -139 -4 -34 18 -48 9 -48 -34 0 -27 27
-39 104 -48 103 -12 186 51 186 141 0 62 -29 99 -105 135 -37 18 -76 41 -86
51 -25 25 -24 64 4 89 17 17 31 21 67 17 25 -2 55 -8 66 -12 18 -5 23 -2 28
21 10 38 -5 48 -82 52 -50 2 -76 -1 -101 -15z"/>
<path d="M1088 2222 c-43 -126 -78 -234 -78 -241 0 -6 15 -11 34 -11 34 0 35
1 58 73 l25 72 79 3 79 3 25 -73 c25 -72 27 -73 63 -76 20 -2 37 0 37 5 0 4
-35 112 -79 238 l-79 230 -43 3 -44 3 -77 -229z"/>
<path d="M2620 3023 c-52 -19 -68 -85 -30 -123 20 -20 33 -20 623 -20 l604 0
21 23 c27 29 28 67 3 98 l-19 24 -594 2 c-326 1 -600 -1 -608 -4z"/>
<path d="M2590 2610 c-24 -24 -26 -67 -4 -98 l15 -22 610 0 c596 0 609 0 629
20 11 11 20 33 20 50 0 17 -9 39 -20 50 -20 20 -33 20 -625 20 -592 0 -605 0
-625 -20z"/>
<path d="M2592 2217 c-28 -30 -29 -78 -1 -103 20 -18 45 -19 626 -19 l605 0
19 24 c26 32 24 73 -4 99 l-23 22 -600 0 -601 0 -21 -23z"/>
<path d="M2620 1843 c-53 -20 -67 -83 -27 -121 23 -22 29 -22 339 -22 l317 0
21 27 c16 20 20 36 16 58 -13 61 -8 60 -344 62 -169 1 -314 -1 -322 -4z"/>
<path d="M807 969 c-47 -28 -40 -107 11 -128 19 -8 451 -11 1515 -9 l1489 3
19 24 c26 32 24 73 -4 99 l-23 22 -1495 0 c-1025 -1 -1500 -4 -1512 -11z"/>
<path d="M798 593 c-24 -28 -28 -50 -17 -83 8 -22 20 -33 47 -40 25 -8 282
-10 803 -8 738 3 768 4 788 22 27 25 29 86 3 109 -17 16 -88 17 -814 17 -745
0 -796 -1 -810 -17z"/>
</g>
</svg>
