<?xml version="1.0" standalone="no"?>
<!DOCTYPE svg PUBLIC "-//W3C//DTD SVG 20010904//EN"
 "http://www.w3.org/TR/2001/REC-SVG-20010904/DTD/svg10.dtd">
<svg version="1.0" xmlns="http://www.w3.org/2000/svg"
 width="512.000000pt" height="512.000000pt" viewBox="0 0 512.000000 512.000000"
 preserveAspectRatio="xMidYMid meet">
<metadata>
Created by potrace 1.16, written by Peter Selinger 2001-2019
</metadata>
<g transform="translate(0.000000,512.000000) scale(0.100000,-0.100000)"
fill="#FFFFFF" stroke="none">
<path d="M734 5095 c-169 -50 -311 -134 -433 -256 -123 -123 -204 -260 -258
-438 -25 -80 -27 -100 -27 -271 -1 -165 2 -194 22 -265 84 -289 292 -536 550
-652 31 -14 58 -27 59 -28 2 -1 -10 -53 -26 -116 -81 -319 -81 -672 -1 -993
17 -66 29 -120 28 -121 -2 -1 -29 -14 -60 -28 -256 -115 -466 -363 -548 -647
-31 -106 -39 -344 -16 -459 22 -107 72 -244 97 -267 26 -24 82 -23 109 1 29
26 23 79 -21 200 -29 80 -33 104 -37 225 -3 113 -1 149 17 222 96 403 457 676
865 655 132 -7 201 -24 321 -81 175 -83 317 -225 401 -401 56 -119 73 -187 81
-320 19 -348 -180 -670 -504 -817 -176 -80 -412 -92 -598 -31 -85 27 -199 89
-271 147 -70 57 -97 65 -137 45 -30 -16 -37 -28 -37 -71 0 -31 7 -43 52 -83
116 -104 285 -186 459 -221 115 -23 353 -15 459 16 284 82 532 292 647 548 14
31 27 59 29 61 2 2 47 -8 101 -23 186 -49 282 -60 513 -60 231 0 327 11 513
60 54 15 99 25 100 23 1 -2 17 -35 36 -74 47 -99 96 -169 175 -253 126 -133
274 -224 453 -279 83 -25 100 -27 278 -27 179 0 195 1 279 27 179 56 322 143
447 274 93 98 129 150 184 266 71 150 85 221 85 430 0 185 -8 238 -50 355 -87
236 -291 457 -516 559 -33 14 -61 27 -63 29 -2 2 8 47 23 101 49 188 60 282
60 513 0 230 -11 327 -59 508 -14 52 -25 97 -25 101 0 4 25 18 55 30 139 58
322 212 415 350 59 88 115 211 139 308 17 67 21 112 21 261 0 210 -14 279 -84
427 -57 121 -93 172 -185 269 -130 134 -273 221 -448 271 -88 25 -100 26 -300
23 l-208 -3 -100 -35 c-55 -20 -138 -58 -184 -85 -97 -57 -242 -190 -306 -280
-32 -45 -103 -175 -121 -223 0 -1 -54 11 -120 28 -321 80 -674 80 -993 -1 -63
-16 -115 -28 -116 -26 -1 1 -14 28 -28 59 -115 256 -368 470 -647 547 -64 18
-102 21 -270 20 -176 0 -203 -2 -276 -24z m474 -146 c322 -74 570 -333 638
-669 20 -100 15 -270 -11 -365 -22 -82 -94 -229 -139 -289 -50 -65 -57 -106
-22 -141 21 -21 34 -26 63 -23 32 3 44 12 84 61 89 110 164 292 190 457 10 64
8 254 -3 335 -3 17 9 23 82 42 181 49 254 57 480 57 226 0 297 -8 480 -57 l85
-22 -5 -35 c-3 -19 -5 -107 -4 -195 1 -142 4 -170 28 -248 108 -360 365 -611
724 -709 61 -17 108 -21 232 -22 85 -1 169 2 187 6 l32 7 21 -66 c91 -294 90
-694 -1 -1005 l-20 -67 -32 7 c-18 4 -102 7 -187 6 -170 -1 -241 -15 -383 -74
-215 -89 -416 -284 -517 -503 -57 -123 -82 -229 -87 -382 -3 -77 -1 -164 5
-192 l9 -53 -66 -19 c-160 -46 -338 -71 -501 -71 -164 0 -388 33 -522 76 -46
15 -47 16 -40 47 4 18 7 100 7 182 -1 123 -5 165 -23 234 -100 371 -364 634
-733 733 -67 17 -112 22 -224 22 -77 1 -160 -1 -184 -4 l-44 -5 -24 85 c-48
177 -57 253 -57 480 0 226 8 297 57 480 l22 85 45 -5 c25 -3 108 -5 185 -4
117 1 155 5 235 26 103 28 237 86 257 110 24 29 26 72 4 100 -34 43 -62 43
-160 -1 -122 -55 -188 -71 -317 -78 -186 -10 -349 35 -507 140 -182 122 -307
301 -358 515 -30 124 -23 321 15 437 141 430 568 675 1004 574z m3024 16 c279
-23 561 -240 676 -518 57 -137 78 -327 51 -472 -52 -281 -267 -540 -530 -639
-165 -62 -368 -72 -527 -27 -430 124 -695 556 -606 989 61 299 293 551 590
641 69 21 207 40 254 35 14 -2 55 -6 92 -9z m56 -3121 c168 -34 308 -110 432
-234 101 -101 166 -205 211 -340 41 -123 51 -290 24 -421 -94 -466 -562 -768
-1020 -659 -386 91 -655 430 -655 824 0 415 304 769 720 839 62 10 218 6 288
-9z"/>
<path d="M1093 4572 c-93 -33 -150 -93 -178 -185 -11 -36 -16 -42 -36 -39 -55
7 -150 64 -211 128 -50 51 -68 64 -93 64 -48 0 -72 -24 -95 -96 -59 -191 -22
-388 96 -514 29 -31 41 -51 34 -55 -6 -4 -48 -10 -92 -14 -67 -6 -84 -11 -99
-30 -42 -51 -20 -100 61 -141 101 -51 201 -74 325 -74 131 -1 191 12 305 66
69 33 100 56 165 122 119 120 176 249 192 432 5 60 12 87 33 118 78 118 78
214 0 231 -23 5 -43 0 -84 -23 l-53 -30 -51 25 c-68 33 -151 39 -219 15z m176
-180 c32 -26 36 -35 39 -82 5 -81 -16 -181 -53 -260 -76 -156 -221 -257 -398
-276 l-62 -6 37 26 c74 52 63 111 -32 168 -124 75 -175 149 -187 271 l-6 67
58 -35 c93 -56 160 -77 261 -82 85 -5 92 -4 112 18 17 17 22 35 22 74 0 132
113 195 209 117z"/>
<path d="M3051 3324 c-12 -15 -21 -40 -21 -55 0 -28 -8 -33 -152 -104 -188
-91 -384 -159 -448 -155 -25 2 -135 4 -245 4 -232 1 -252 -5 -293 -84 -22 -44
-23 -52 -20 -282 3 -221 4 -238 24 -264 36 -49 70 -67 133 -72 l60 -4 5 -62
c3 -33 10 -151 16 -261 10 -196 10 -200 36 -222 42 -38 106 -26 124 22 8 22 0
264 -15 458 l-5 67 71 0 c38 0 79 4 89 10 13 7 45 2 119 -20 109 -33 135 -31
165 12 43 61 5 108 -118 143 -48 14 -95 25 -102 25 -12 0 -14 31 -12 181 l3
181 115 33 c126 36 218 71 354 134 49 23 90 41 92 41 2 0 4 -176 4 -390 l0
-390 -50 25 c-97 49 -160 20 -150 -70 3 -31 16 -41 111 -92 71 -38 89 -52 89
-70 0 -59 50 -101 104 -87 58 14 56 -9 56 691 0 630 0 643 -20 663 -31 31 -93
27 -119 -6z m-751 -659 l0 -195 -135 0 -135 0 0 195 0 195 135 0 135 0 0 -195z"/>
<path d="M4180 4701 c-50 -16 -89 -41 -129 -87 -56 -64 -71 -120 -71 -271 l0
-123 -68 0 c-59 0 -72 -3 -90 -23 -27 -29 -28 -77 -3 -108 16 -19 30 -24 90
-27 l71 -4 0 -235 0 -234 25 -24 c15 -16 36 -25 55 -25 19 0 40 9 55 25 l25
24 0 234 0 235 76 4 c65 3 79 7 95 27 25 30 24 72 -2 105 -19 24 -26 26 -95
26 l-74 0 0 115 c0 179 21 205 167 215 84 6 98 9 114 29 25 31 24 86 -1 111
-17 17 -33 20 -117 19 -54 0 -109 -4 -123 -8z"/>
<path d="M3715 1531 c-50 -22 -101 -79 -115 -128 -8 -26 -10 -159 -8 -415 l3
-376 30 -43 c17 -23 50 -53 74 -66 44 -23 46 -23 426 -23 380 0 382 0 426 23
24 13 58 43 74 66 l30 43 3 376 c2 254 0 389 -8 415 -14 49 -65 106 -115 128
-36 17 -73 19 -410 19 -337 0 -374 -2 -410 -19z m767 -158 c17 -15 18 -39 18
-359 0 -298 -2 -345 -16 -358 -13 -14 -60 -16 -359 -16 -299 0 -346 2 -359 16
-14 13 -16 60 -16 356 0 304 2 343 17 360 15 17 39 18 356 18 303 0 342 -2
359 -17z"/>
<path d="M4030 1224 c-187 -81 -176 -362 15 -428 61 -20 99 -20 160 0 188 65
203 332 23 425 -46 23 -147 25 -198 3z m153 -176 c17 -23 18 -31 8 -56 -16
-39 -55 -57 -91 -42 -73 30 -49 135 28 128 24 -2 41 -11 55 -30z"/>
<path d="M794 1414 c-58 -28 -59 -36 -59 -383 0 -174 3 -329 8 -344 9 -33 60
-67 101 -67 35 0 558 296 594 336 26 29 29 81 8 122 -10 20 -86 69 -277 179
-326 188 -319 185 -375 157z m294 -299 c123 -70 151 -90 140 -100 -11 -10
-254 -152 -315 -184 l-23 -12 0 207 0 206 23 -14 c12 -8 91 -54 175 -103z"/>
</g>
</svg>
