<?xml version="1.0" standalone="no"?>
<!DOCTYPE svg PUBLIC "-//W3C//DTD SVG 20010904//EN"
 "http://www.w3.org/TR/2001/REC-SVG-20010904/DTD/svg10.dtd">
<svg version="1.0" xmlns="http://www.w3.org/2000/svg"
 width="512.000000pt" height="512.000000pt" viewBox="0 0 512.000000 512.000000"
 preserveAspectRatio="xMidYMid meet">
<metadata>
Created by potrace 1.16, written by Peter Selinger 2001-2019
</metadata>
<g transform="translate(0.000000,512.000000) scale(0.100000,-0.100000)"
fill="#FFFFFF" stroke="none">
<path d="M1760 5033 c-35 -13 -50 -37 -50 -79 0 -50 -26 -10 403 -624 l276
-395 -1067 -5 -1067 -5 -57 -27 c-69 -32 -136 -97 -169 -163 l-24 -50 -3
-1535 c-2 -1712 -8 -1583 68 -1679 68 -86 165 -131 284 -131 l66 0 0 -92 c0
-55 5 -103 13 -118 27 -53 106 -62 147 -17 17 18 20 35 20 124 l0 103 1960 0
1960 0 0 -103 c0 -89 3 -106 20 -124 41 -45 120 -36 147 17 8 15 13 63 13 118
l0 92 66 0 c119 0 216 45 284 131 76 96 70 -33 68 1679 l-3 1535 -24 50 c-33
66 -100 131 -169 163 l-57 27 -1068 5 -1068 5 291 470 c161 259 299 483 307
499 22 43 9 92 -30 116 -46 28 -74 25 -111 -12 -17 -18 -164 -248 -326 -510
-162 -263 -298 -478 -301 -478 -4 0 -161 222 -350 494 -193 277 -356 501 -371
510 -26 16 -51 19 -78 9z m3114 -1317 c71 -54 66 61 66 -1589 l0 -1494 -22
-33 c-13 -18 -36 -43 -51 -54 l-28 -21 -2279 0 -2279 0 -28 21 c-15 11 -38 36
-50 54 l-23 33 0 1494 c0 1590 -2 1532 46 1575 58 51 -103 48 2345 45 l2266
-2 37 -29z"/>
<path d="M733 3576 c-131 -32 -270 -138 -331 -254 -65 -123 -62 -63 -62 -1187
0 -1122 -3 -1060 61 -1186 36 -72 130 -166 206 -207 123 -65 49 -62 1435 -62
884 0 1273 3 1310 11 144 30 289 145 353 280 19 41 39 98 45 128 14 73 14
1999 0 2072 -37 196 -213 372 -409 409 -85 16 -2541 12 -2608 -4z m2590 -181
c123 -32 210 -119 242 -242 22 -86 22 -1950 0 -2036 -26 -100 -99 -187 -194
-231 l-46 -21 -1275 0 -1275 0 -56 26 c-72 34 -134 96 -168 168 l-26 56 0
1020 0 1020 27 57 c43 91 131 165 225 187 21 5 589 9 1263 10 1057 1 1234 -1
1283 -14z"/>
<path d="M1428 3182 c-144 -144 -148 -150 -148 -191 0 -56 33 -91 87 -91 35 0
47 10 190 153 140 140 153 156 153 188 0 53 -37 89 -91 89 -41 0 -47 -4 -191
-148z"/>
<path d="M1075 3241 c-11 -5 -104 -94 -207 -198 -173 -174 -188 -192 -188
-225 0 -50 37 -88 87 -88 37 0 48 9 237 199 l199 200 -6 37 c-4 21 -14 46 -24
56 -22 21 -71 31 -98 19z"/>
<path d="M1045 2795 c-18 -17 -25 -35 -25 -62 1 -46 17 -70 58 -84 61 -21 122
20 122 82 0 28 -26 75 -45 83 -37 14 -86 6 -110 -19z"/>
<path d="M831 2562 c-14 -2 -53 -32 -88 -67 -56 -57 -63 -67 -63 -103 0 -33 6
-45 31 -66 52 -44 82 -36 161 42 58 59 68 74 68 104 0 62 -45 99 -109 90z"/>
<path d="M3950 3142 c-13 -10 -23 -33 -27 -58 -4 -33 -1 -45 20 -70 l25 -29
354 -3 c194 -2 368 0 386 3 49 9 72 37 72 88 0 33 -6 49 -23 65 -23 22 -27 22
-404 22 -349 0 -383 -1 -403 -18z"/>
<path d="M3962 2813 c-16 -6 -42 -56 -42 -82 0 -36 22 -70 53 -81 19 -6 163
-10 384 -10 422 0 423 0 423 96 0 24 -8 43 -25 59 l-24 25 -378 -1 c-208 0
-384 -3 -391 -6z"/>
<path d="M3959 2467 c-55 -42 -49 -132 10 -157 18 -7 144 -10 400 -8 l373 3
19 24 c28 34 25 96 -6 126 l-24 25 -378 0 c-281 -1 -382 -4 -394 -13z"/>
<path d="M3963 2128 c-42 -20 -44 -45 -41 -437 l3 -373 24 -19 c22 -18 44 -19
405 -19 l383 0 21 23 c22 23 22 27 22 404 0 360 -1 382 -19 404 l-19 24 -379
2 c-252 1 -385 -2 -400 -9z m637 -418 l0 -250 -250 0 -250 0 0 250 0 250 250
0 250 0 0 -250z"/>
</g>
</svg>
