<?xml version="1.0" standalone="no"?>
<!DOCTYPE svg PUBLIC "-//W3C//DTD SVG 20010904//EN"
 "http://www.w3.org/TR/2001/REC-SVG-20010904/DTD/svg10.dtd">
<svg version="1.0" xmlns="http://www.w3.org/2000/svg"
 width="512.000000pt" height="512.000000pt" viewBox="0 0 512.000000 512.000000"
 preserveAspectRatio="xMidYMid meet">
<metadata>
Created by potrace 1.16, written by Peter Selinger 2001-2019
</metadata>
<g transform="translate(0.000000,512.000000) scale(0.100000,-0.100000)"
fill="#FFFFFF" stroke="none">
<path d="M1700 4489 c-403 -13 -859 -39 -955 -54 -167 -27 -297 -86 -414 -190
-91 -80 -142 -151 -192 -263 -60 -138 -96 -295 -116 -517 -25 -276 -26 -1539
0 -1816 44 -487 171 -731 455 -874 170 -86 363 -110 1097 -135 808 -28 1637
-23 2380 15 431 22 521 36 660 101 198 92 325 244 404 480 83 248 96 434 96
1339 -1 570 -4 734 -17 886 -44 487 -161 722 -438 881 -69 39 -175 74 -280 91
-308 51 -1846 83 -2680 56z m1666 -309 c404 -13 872 -38 953 -51 127 -20 243
-78 312 -157 139 -158 182 -492 182 -1417 0 -605 -20 -965 -63 -1127 -51 -197
-102 -282 -208 -354 -110 -76 -169 -86 -607 -109 -845 -43 -1659 -45 -2620 -5
-545 23 -688 54 -809 175 -84 83 -145 254 -166 458 -45 466 -45 1490 1 1928
12 119 49 258 92 352 60 128 182 219 337 250 77 16 514 42 935 56 361 12 1311
12 1661 1z"/>
<path d="M2058 3430 c-81 -24 -132 -84 -148 -173 -7 -36 -10 -277 -8 -684 l3
-628 25 -45 c38 -67 96 -103 174 -108 58 -4 71 -1 134 31 143 73 1118 600
1144 618 38 28 78 113 78 168 0 55 -27 116 -66 153 -31 28 -1157 647 -1213
666 -38 13 -83 14 -123 2z m508 -561 c192 -105 378 -206 412 -226 l64 -35
-354 -190 c-194 -104 -381 -205 -415 -223 l-63 -35 0 450 c0 248 2 450 4 450
2 0 160 -86 352 -191z"/>
</g>
</svg>
